<svg width="32" height="32" viewBox="0 0 32 32" fill="none" xmlns="http://www.w3.org/2000/svg">
<path d="M26.6263 13.3335H5.29297V24.0002C5.29297 28.0002 6.6263 29.3335 10.6263 29.3335H21.293C25.293 29.3335 26.6263 28.0002 26.6263 24.0002V13.3335Z" stroke="white" stroke-width="1.5" stroke-miterlimit="10" stroke-linecap="round" stroke-linejoin="round"/>
<path d="M28.6654 9.33317V10.6665C28.6654 12.1332 27.9587 13.3332 25.9987 13.3332H5.9987C3.9587 13.3332 3.33203 12.1332 3.33203 10.6665V9.33317C3.33203 7.8665 3.9587 6.6665 5.9987 6.6665H25.9987C27.9587 6.6665 28.6654 7.8665 28.6654 9.33317Z" stroke="white" stroke-width="1.5" stroke-miterlimit="10" stroke-linecap="round" stroke-linejoin="round"/>
<path d="M15.5184 6.66659H8.15841C7.70508 6.17325 7.71841 5.41326 8.19841 4.93326L10.0917 3.03992C10.5851 2.54659 11.3984 2.54659 11.8917 3.03992L15.5184 6.66659Z" stroke="white" stroke-width="1.5" stroke-miterlimit="10" stroke-linecap="round" stroke-linejoin="round"/>
<path d="M23.8248 6.66659H16.4648L20.0915 3.03992C20.5848 2.54659 21.3982 2.54659 21.8915 3.03992L23.7848 4.93326C24.2648 5.41326 24.2782 6.17325 23.8248 6.66659Z" stroke="white" stroke-width="1.5" stroke-miterlimit="10" stroke-linecap="round" stroke-linejoin="round"/>
<path d="M11.9219 13.3335V20.1868C11.9219 21.2535 13.0952 21.8802 13.9885 21.3068L15.2419 20.4802C15.6952 20.1868 16.2685 20.1868 16.7085 20.4802L17.8952 21.2802C18.7752 21.8668 19.9619 21.2402 19.9619 20.1735V13.3335H11.9219Z" stroke="white" stroke-width="1.5" stroke-miterlimit="10" stroke-linecap="round" stroke-linejoin="round"/>
</svg>
