<svg width="200" height="117" viewBox="0 0 200 117" fill="none" xmlns="http://www.w3.org/2000/svg">
<g clip-path="url(#clip0_1576_6744)">
<path d="M140.4 65.8H147.2L146.8 62C154.5 61.2 156.5 56.5 157.4 49C158.1 42.9 159.5 0 146.2 0C134.6 0 137 27.3 127.7 25.5C123.1 24.6 123.3 14.4 121 8.6C120.3 6.8 119.3 5.7 117.8 5.7C116.3 5.7 115.4 6.9 114.6 8.6C112.6 13.5 112.1 22.4 108.7 24.7C103.6 28.2 89.4999 16.3 76.1999 19C69.8999 20.3 66.0999 25.4 64.7999 32.1C64.7999 32.1 63.4999 24.2 61.5999 15.4C60.5999 10.6 57.7999 8 54.4999 8C51.1999 8 48.3999 10.6 47.3999 15.4C45.8999 22.6 43.5999 35.2 42.4999 45.8C41.2999 57.3 48.2999 61.3 51.9999 62.1L51.5999 65.8H58.3999" fill="#F6F7F7"/>
<path d="M140.4 65.8002V62.4002V54.8002V37.8002H143.3V36.4002H96.2996V32.2002H82.8996V40.1002H55.5996V41.6002H58.4996V65.8002H140.4Z" fill="#E5E5E4"/>
<path d="M95.3992 40H83.6992V65.9H95.3992V40Z" fill="#DADCDC"/>
<path d="M140.4 57.7998H100V65.7998H140.4V57.7998Z" fill="#DADCDC"/>
<path d="M95.3992 32.7998H83.6992V36.3998H95.3992V32.7998Z" fill="#DADCDC"/>
<path d="M82.9 58.2998H58.5V65.8998H82.9V58.2998Z" fill="#DADCDC"/>
<path d="M82.9 59.7002H58.5V60.2002H82.9V59.7002Z" fill="#D1D2D4"/>
<path d="M82.9 61.7998H58.5V62.2998H82.9V61.7998Z" fill="#D1D2D4"/>
<path d="M82.9 63.9004H58.5V64.4004H82.9V63.9004Z" fill="#D1D2D4"/>
<path d="M105.1 59.7002H102.6V60.2002H105.1V59.7002Z" fill="#D1D2D4"/>
<path d="M105.1 61.7998H102.6V62.2998H105.1V61.7998Z" fill="#D1D2D4"/>
<path d="M105.1 63.9004H102.6V64.4004H105.1V63.9004Z" fill="#D1D2D4"/>
<path d="M113.9 59.7002H111.4V60.2002H113.9V59.7002Z" fill="#D1D2D4"/>
<path d="M113.9 61.7998H111.4V62.2998H113.9V61.7998Z" fill="#D1D2D4"/>
<path d="M113.9 63.9004H111.4V64.4004H113.9V63.9004Z" fill="#D1D2D4"/>
<path d="M122.801 59.7002H120.301V60.2002H122.801V59.7002Z" fill="#D1D2D4"/>
<path d="M122.801 61.7998H120.301V62.2998H122.801V61.7998Z" fill="#D1D2D4"/>
<path d="M122.801 63.9004H120.301V64.4004H122.801V63.9004Z" fill="#D1D2D4"/>
<path d="M131.602 59.7002H129.102V60.2002H131.602V59.7002Z" fill="#D1D2D4"/>
<path d="M131.602 61.7998H129.102V62.2998H131.602V61.7998Z" fill="#D1D2D4"/>
<path d="M131.602 63.9004H129.102V64.4004H131.602V63.9004Z" fill="#D1D2D4"/>
<path d="M140.398 59.7002H137.898V60.2002H140.398V59.7002Z" fill="#D1D2D4"/>
<path d="M140.398 61.7998H137.898V62.2998H140.398V61.7998Z" fill="#D1D2D4"/>
<path d="M140.398 63.9004H137.898V64.4004H140.398V63.9004Z" fill="#D1D2D4"/>
<path d="M82.9 43.9004H58.5V55.4004H82.9V43.9004Z" fill="#DADCDC"/>
<path d="M140.4 37.7998H82.9004V39.3998H140.4V37.7998Z" fill="#131613"/>
<path d="M83 41.5996H58.5V43.2996H83V41.5996Z" fill="#131613"/>
<path d="M82.9 55.9004H58.5V57.7004H82.9V55.9004Z" fill="#DADCDC"/>
<path d="M140.4 56.5H99.5V58.1H140.4V56.5Z" fill="#131613"/>
<path d="M89.2992 34L88.4992 33.5L87.6992 34V35.8H89.2992V34Z" fill="#131613"/>
<path d="M91.5004 34L90.7004 33.5L89.9004 34V35.8H91.5004V34Z" fill="#131613"/>
<path d="M140.4 55.5996H99.5V56.4996H140.4V55.5996Z" fill="#B7B7B8"/>
<path d="M60.8 37.7998H58.5V40.0998H60.8V37.7998Z" fill="#B7B7B8"/>
<path d="M104.1 40H103.6V55.1H104.1V40Z" fill="#DADCDC"/>
<path d="M112.9 40H112.4V55.1H112.9V40Z" fill="#DADCDC"/>
<path d="M121.801 40H121.301V55.1H121.801V40Z" fill="#DADCDC"/>
<path d="M130.602 40H130.102V55.1H130.602V40Z" fill="#DADCDC"/>
<path d="M139.398 40H138.898V55.1H139.398V40Z" fill="#DADCDC"/>
<path d="M82.9 47.5996H58.5V48.0996H82.9V47.5996Z" fill="#D1D2D4"/>
<path d="M82.9 45.5H58.5V46H82.9V45.5Z" fill="#D1D2D4"/>
<path d="M82.9 49.7002H58.5V50.2002H82.9V49.7002Z" fill="#D1D2D4"/>
<path d="M82.9 51.7998H58.5V52.2998H82.9V51.7998Z" fill="#D1D2D4"/>
<path d="M82.9 53.7998H58.5V54.2998H82.9V53.7998Z" fill="#D1D2D4"/>
<path d="M82.9 56.2998H58.5V57.4998H82.9V56.2998Z" fill="#D1D2D4"/>
<path d="M95.3992 57.5996H83.6992V58.0996H95.3992V57.5996Z" fill="#D1D2D4"/>
<path d="M95.3992 55.5H83.6992V56H95.3992V55.5Z" fill="#D1D2D4"/>
<path d="M95.3992 59.7002H83.6992V60.2002H95.3992V59.7002Z" fill="#D1D2D4"/>
<path d="M95.3992 61.7998H83.6992V62.2998H95.3992V61.7998Z" fill="#D1D2D4"/>
<path d="M95.3992 63.9004H83.6992V64.4004H95.3992V63.9004Z" fill="#D1D2D4"/>
<path d="M95.3992 47.5996H83.6992V48.0996H95.3992V47.5996Z" fill="#D1D2D4"/>
<path d="M95.3992 45.5H83.6992V46H95.3992V45.5Z" fill="#D1D2D4"/>
<path d="M95.3992 49.7002H83.6992V50.2002H95.3992V49.7002Z" fill="#D1D2D4"/>
<path d="M95.3992 51.7998H83.6992V52.2998H95.3992V51.7998Z" fill="#D1D2D4"/>
<path d="M95.3992 53.7998H83.6992V54.2998H95.3992V53.7998Z" fill="#D1D2D4"/>
<path d="M95.3992 43.4004H83.6992V43.9004H95.3992V43.4004Z" fill="#D1D2D4"/>
<path d="M95.3992 41.2998H83.6992V41.7998H95.3992V41.2998Z" fill="#D1D2D4"/>
<path d="M79.4004 53.8004V47.0004L77.4004 45.4004L75.4004 47.0004V53.8004" fill="#818286"/>
<path d="M77.4004 45.4004L75.4004 47.0004V53.8004H77.1004V48.4004H79.4004V47.0004L77.4004 45.4004Z" fill="#131613"/>
<path d="M68.0004 53.8004V47.0004L65.9004 45.4004L63.9004 47.0004V53.8004" fill="#818286"/>
<path d="M65.9004 45.4004L63.9004 47.0004V53.8004H65.6004V48.4004H68.0004V47.0004L65.9004 45.4004Z" fill="#131613"/>
<path d="M65.9004 45.3998L67.9004 46.9998V48.3998V53.8998H65.5004H63.8004V46.9998L65.9004 45.3998ZM65.9004 44.7998L65.6004 44.9998L63.6004 46.5998L63.4004 46.7998V46.9998V53.8998V54.3998H63.9004H65.6004H68.0004H68.5004V53.8998V48.3998V46.9998V46.6998L68.3004 46.4998L66.3004 44.8998L65.9004 44.7998Z" fill="#EFEFF0"/>
<path d="M77.4004 45.3998L79.4004 46.9998V48.3998V53.8998H77.0004H75.3004V46.9998L77.4004 45.3998ZM77.4004 44.7998L77.1004 44.9998L75.1004 46.5998L74.9004 46.7998V46.9998V53.8998V54.3998H75.4004H77.1004H79.5004H80.0004V53.8998V48.3998V46.9998V46.6998L79.8004 46.4998L77.8004 44.8998L77.4004 44.7998Z" fill="#EFEFF0"/>
<mask id="mask0_1576_6744" style="mask-type:luminance" maskUnits="userSpaceOnUse" x="81" y="41" width="2" height="25">
<path d="M82.9992 41.5996H81.1992V65.7996H82.9992V41.5996Z" fill="white"/>
</mask>
<g mask="url(#mask0_1576_6744)">
<path d="M82.9992 41.5996H81.1992V65.7996H82.9992V41.5996Z" fill="#BABABB"/>
</g>
<path d="M93.2 57.7998H86V59.8998V65.7998H93.2V59.8998V57.7998Z" fill="#131613"/>
<path d="M89.6008 43.2002C88.5008 43.6002 87.3008 44.5002 87.3008 45.8002V52.7002H91.8008V45.8002C91.9008 44.5002 90.7008 43.6002 89.6008 43.2002Z" fill="#131613"/>
<path d="M91.8 45.7998H90V52.5998H91.8V45.7998Z" fill="#818286"/>
<path d="M96.3004 30.9004H82.9004V32.2004H96.3004V30.9004Z" fill="#131613"/>
<path d="M94.1 57.8H85.1L84.5 57H94.7L94.1 57.8Z" fill="#131613"/>
<path d="M93.2 60H90V65.8H93.2V60Z" fill="#818286"/>
<path d="M89.6 55.0996L84.5 56.5996V56.9996H89.6H94.7V56.5996L89.6 55.0996Z" fill="#B4B6B7"/>
<path d="M82.8992 38.7002H69.5992L60.6992 40.1002H80.1992V41.6002H82.8992V40.1002V38.7002Z" fill="#B7B7B8"/>
<path d="M115.7 52.7002H114V55.1002H115.7V52.7002Z" fill="#DADCDC"/>
<path d="M120.3 52.7002H118.6V55.1002H120.3V52.7002Z" fill="#DADCDC"/>
<path d="M118.001 52.7002H116.301V55.1002H118.001V52.7002Z" fill="#DADCDC"/>
<path d="M120.3 45.6004L119.5 44.3004V43.2004L117.1 41.9004L114.8 43.2004V44.3004L114 45.6004V52.1004H120.3V45.6004Z" fill="#131613"/>
<path d="M120.3 45.5996H118.6V52.0996H120.3V45.5996Z" fill="#818286"/>
<path d="M119.5 44.3002L120.3 45.6002V43.6002L119.5 43.2002V44.3002Z" fill="#DADCDC"/>
<path d="M120.3 43.0998V40.2998L117.6 41.6998L120.3 43.0998Z" fill="#DADCDC"/>
<path d="M114.8 43.2002L114 43.6002V45.6002L114.8 44.3002V43.2002Z" fill="#DADCDC"/>
<path d="M119.901 40H117.101H114.301L117.101 41.4L119.901 40Z" fill="#DADCDC"/>
<path d="M114 40.2998V43.0998L116.7 41.6998L114 40.2998Z" fill="#DADCDC"/>
<path d="M106.899 52.7002H105.199V55.1002H106.899V52.7002Z" fill="#DADCDC"/>
<path d="M111.399 52.7002H109.699V55.1002H111.399V52.7002Z" fill="#DADCDC"/>
<path d="M109.1 52.7002H107.4V55.1002H109.1V52.7002Z" fill="#DADCDC"/>
<path d="M111.499 45.6004L110.699 44.3004V43.2004L108.299 41.9004L105.899 43.2004V44.3004L105.199 45.6004V52.1004H111.499V45.6004Z" fill="#131613"/>
<path d="M111.399 45.5996H109.699V52.0996H111.399V45.5996Z" fill="#818286"/>
<path d="M110.699 44.3002L111.499 45.6002V43.6002L110.699 43.2002V44.3002Z" fill="#DADCDC"/>
<path d="M111.501 43.0998V40.2998L108.801 41.6998L111.501 43.0998Z" fill="#DADCDC"/>
<path d="M105.899 43.2002L105.199 43.6002V45.6002L105.899 44.3002V43.2002Z" fill="#DADCDC"/>
<path d="M111.1 40H108.3H105.5L108.3 41.4L111.1 40Z" fill="#DADCDC"/>
<path d="M105.199 40.2998V43.0998L107.799 41.6998L105.199 40.2998Z" fill="#DADCDC"/>
<path d="M133.302 52.7002H131.602V55.1002H133.302V52.7002Z" fill="#DADCDC"/>
<path d="M137.899 52.7002H136.199V55.1002H137.899V52.7002Z" fill="#DADCDC"/>
<path d="M135.598 52.7002H133.898V55.1002H135.598V52.7002Z" fill="#DADCDC"/>
<path d="M137.902 45.6004L137.102 44.3004V43.2004L134.802 41.9004L132.402 43.2004V44.3004L131.602 45.6004V52.1004H137.902V45.6004Z" fill="#131613"/>
<path d="M137.102 44.3002L137.902 45.6002V43.6002L137.102 43.2002V44.3002Z" fill="#DADCDC"/>
<path d="M137.899 43.0998V40.2998L135.199 41.6998L137.899 43.0998Z" fill="#DADCDC"/>
<path d="M132.402 43.2002L131.602 43.6002V45.6002L132.402 44.3002V43.2002Z" fill="#DADCDC"/>
<path d="M137.6 40H134.8H132L134.8 41.4L137.6 40Z" fill="#DADCDC"/>
<path d="M131.602 40.2998V43.0998L134.302 41.6998L131.602 40.2998Z" fill="#DADCDC"/>
<path d="M124.501 52.7002H122.801V55.1002H124.501V52.7002Z" fill="#DADCDC"/>
<path d="M129.1 52.7002H127.4V55.1002H129.1V52.7002Z" fill="#DADCDC"/>
<path d="M126.8 52.7002H125.1V55.1002H126.8V52.7002Z" fill="#DADCDC"/>
<path d="M129.101 45.6004L128.301 44.3004V43.2004L125.901 41.9004L123.601 43.2004V44.3004L122.801 45.6004V52.1004H129.101V45.6004Z" fill="#131613"/>
<path d="M128.301 44.3002L129.101 45.6002V43.6002L128.301 43.2002V44.3002Z" fill="#DADCDC"/>
<path d="M129.1 43.0998V40.2998L126.4 41.6998L129.1 43.0998Z" fill="#DADCDC"/>
<path d="M123.601 43.2002L122.801 43.6002V45.6002L123.601 44.3002V43.2002Z" fill="#DADCDC"/>
<path d="M128.7 40H125.9H123.1L125.9 41.4L128.7 40Z" fill="#DADCDC"/>
<path d="M122.801 40.2998V43.0998L125.501 41.6998L122.801 40.2998Z" fill="#DADCDC"/>
<path d="M72.6992 40.0998L74.9992 37.7998H72.6992V40.0998Z" fill="#131613"/>
<path d="M122.8 33.2998H99.5V34.3998H122.8V33.2998Z" fill="#808082"/>
<path d="M122.8 33.2998H99.5V36.3998H122.8V33.2998Z" fill="#999A9D"/>
<path d="M102.6 52.7002H100.9V55.1002H102.6V52.7002Z" fill="#DADCDC"/>
<path d="M100.4 52.7002H99.5V55.1002H100.4V52.7002Z" fill="#DADCDC"/>
<path d="M102.6 45.5996H100.9V52.0996H102.6V45.5996Z" fill="#818286"/>
<path d="M102.601 45.6002V43.6002L101.801 43.2002V44.3002L102.601 45.6002Z" fill="#DADCDC"/>
<path d="M102.6 43.0998V40.2998L99.9004 41.6998L102.6 43.0998Z" fill="#DADCDC"/>
<path d="M102.3 40H99.5V41.4L102.3 40Z" fill="#DADCDC"/>
<path d="M102.599 45.5998L101.799 44.2998V43.1998L99.3992 41.9998V41.4998V39.9998V32.7998H96.1992V40.2998V43.0998V43.5998V45.5998V52.0998V52.6998V55.0998V65.8998H99.3992V55.0998V52.6998V52.0998H102.599V45.5998ZM102.599 52.0998H100.899V45.5998H102.599V52.0998Z" fill="#131613"/>
<path d="M89.6008 43.1996C90.7008 43.5996 91.9008 44.4996 91.9008 45.7996V52.6996H87.4008V45.7996C87.3008 44.4996 88.5008 43.5996 89.6008 43.1996ZM89.6008 42.5996L89.4008 42.6996C87.8008 43.2996 86.8008 44.4996 86.8008 45.7996V52.6996V53.1996H87.3008H91.8008H92.3008V52.6996V45.7996C92.3008 44.4996 91.3008 43.3996 89.7008 42.6996L89.6008 42.5996Z" fill="#EFEFF0"/>
<path d="M129.101 58.0996H122.801V65.7996H129.101V58.0996Z" fill="#131613"/>
<path d="M137.902 58.0996H131.602V65.7996H137.902V58.0996Z" fill="#131613"/>
<path d="M113.9 58.0996V65.7996H118.4V60.1996H120.3V58.0996H113.9Z" fill="#131613"/>
<path d="M120.2 60.2002H118.4V65.8002H120.2V60.2002Z" fill="#818286"/>
<path d="M105.1 58.0996V65.7996H109.6V60.1996H111.4V58.0996H105.1Z" fill="#131613"/>
<path d="M111.4 60.2002H109.6V65.8002H111.4V60.2002Z" fill="#818286"/>
<path d="M96.3008 58.0996V65.7996H100.801V60.1996H102.601V58.0996H96.3008Z" fill="#131613"/>
<path d="M102.601 60.2002H100.801V65.8002H102.601V60.2002Z" fill="#818286"/>
<path d="M98 30.7998L89.8 28.2998L81.5 30.7998V30.8998H98V30.7998Z" fill="#B4B6B7"/>
<path d="M72.8 35.4004H69.5V40.1004H72.8V35.4004Z" fill="#818286"/>
<path d="M79.4004 59.7002H75.4004V65.8002H79.4004V59.7002Z" fill="#818286"/>
<path d="M75.4004 59.7002V65.8002H77.1004V61.2002H79.4004V59.7002H75.4004Z" fill="#131613"/>
<path d="M74.9004 59.2002V59.7002V65.3002V65.8002H75.4004V65.3002V64.6002V62.9002V59.7002H79.4004V65.3002V65.8002H80.0004V65.3002V59.7002V59.2002H74.9004Z" fill="#EFEFF0"/>
<path d="M67.9004 59.7002H63.9004V65.8002H67.9004V59.7002Z" fill="#818286"/>
<path d="M63.9004 59.7002V65.8002H65.6004V61.2002H67.9004V59.7002H63.9004Z" fill="#131613"/>
<path d="M63.4004 59.2002V59.7002V65.3002V65.8002H63.9004V65.3002V64.6002V62.9002V59.7002H67.9004V65.3002V65.8002H68.5004V65.3002V59.7002V59.2002H63.4004Z" fill="#EFEFF0"/>
<path d="M94.0992 57.7998H93.1992V65.7998H94.0992V57.7998Z" fill="#EFEFF0"/>
<path d="M85.9996 57.7998H85.0996V65.7998H85.9996V57.7998Z" fill="#EFEFF0"/>
<path d="M97.2 36.4004H82V37.8004H97.2V36.4004Z" fill="#EFEFF0"/>
<path d="M97.2 36.3998L89.6 34.7998L82 36.3998H97.2Z" fill="#B4B6B7"/>
<path d="M100.5 36.4004H99.4004V37.8004H100.5V36.4004Z" fill="#131613"/>
<path d="M8.1 84.7998V98.8998H5.4V84.7998H0V82.2998H13.5V84.7998H8.1Z" fill="white"/>
<path d="M18.5008 89.3998C17.1008 89.3998 16.3008 89.8998 16.3008 90.7998C16.3008 91.5998 17.1008 91.7998 18.2008 91.9998L19.4008 92.1998C21.9008 92.5998 23.4008 93.5998 23.4008 95.5998C23.4008 97.7998 21.5008 99.2998 18.2008 99.2998C17.0008 99.2998 15.0008 99.0998 13.3008 97.7998L14.5008 95.8998C15.3008 96.4998 16.4008 97.0998 18.3008 97.0998C20.0008 97.0998 20.9008 96.5998 20.9008 95.6998C20.9008 94.9998 20.3008 94.5998 18.9008 94.3998L17.7008 94.1998C15.2008 93.8998 13.8008 92.6998 13.8008 90.8998C13.8008 88.6998 15.6008 87.2998 18.5008 87.2998C20.3008 87.2998 21.9008 87.6998 23.1008 88.4998L22.0008 90.3998C21.4008 89.9998 20.0008 89.3998 18.5008 89.3998Z" fill="white"/>
<path d="M29.3008 83.5998C29.3008 84.5998 28.5008 85.2998 27.5008 85.2998C26.5008 85.2998 25.8008 84.5998 25.8008 83.5998C25.8008 82.5998 26.5008 81.7998 27.5008 81.7998C28.5008 81.8998 29.3008 82.5998 29.3008 83.5998ZM26.3008 87.5998H28.8008V98.9998H26.3008V87.5998Z" fill="white"/>
<path d="M43.2992 91.7998V98.9998H40.7992V92.6998C40.7992 90.7998 39.7992 89.6998 38.0992 89.6998C36.4992 89.6998 35.1992 90.7998 35.1992 92.6998V98.9998H32.6992V87.5998H35.1992V88.9998C36.0992 87.6998 37.4992 87.2998 38.6992 87.2998C41.3992 87.2998 43.2992 89.0998 43.2992 91.7998Z" fill="white"/>
<path d="M55.4992 98.9002V97.5002C54.6992 98.5002 53.5992 99.2002 51.8992 99.2002C48.6992 99.2002 46.1992 96.7002 46.1992 93.2002C46.1992 89.7002 48.6992 87.2002 51.8992 87.2002C53.4992 87.2002 54.6992 87.9002 55.4992 88.9002V87.5002H57.9992V98.9002H55.4992ZM48.7992 93.3002C48.7992 95.3002 50.0992 96.9002 52.1992 96.9002C54.1992 96.9002 55.5992 95.3002 55.5992 93.3002C55.5992 91.2002 54.1992 89.7002 52.1992 89.7002C50.0992 89.6002 48.7992 91.3002 48.7992 93.3002Z" fill="white"/>
<path d="M72.5004 91.7998V98.9998H70.0004V92.6998C70.0004 90.7998 69.0004 89.6998 67.3004 89.6998C65.7004 89.6998 64.4004 90.7998 64.4004 92.6998V98.9998H61.9004V87.5998H64.4004V88.9998C65.3004 87.6998 66.7004 87.2998 67.9004 87.2998C70.6004 87.2998 72.5004 89.0998 72.5004 91.7998Z" fill="white"/>
<path d="M84.7004 88.8998V81.7998H87.2004V98.8998H84.7004V97.4998C83.9004 98.4998 82.8004 99.1998 81.1004 99.1998C77.9004 99.1998 75.4004 96.6998 75.4004 93.1998C75.4004 89.6998 77.9004 87.1998 81.1004 87.1998C82.8004 87.2998 83.9004 87.8998 84.7004 88.8998ZM78.0004 93.2998C78.0004 95.2998 79.3004 96.8998 81.4004 96.8998C83.4004 96.8998 84.8004 95.2998 84.8004 93.2998C84.8004 91.1998 83.4004 89.6998 81.4004 89.6998C79.3004 89.5998 78.0004 91.2998 78.0004 93.2998Z" fill="white"/>
<path d="M99.6008 98.9002V97.5002C98.8008 98.5002 97.7008 99.2002 96.0008 99.2002C92.8008 99.2002 90.3008 96.7002 90.3008 93.2002C90.3008 89.7002 92.8008 87.2002 96.0008 87.2002C97.6008 87.2002 98.8008 87.9002 99.6008 88.9002V87.5002H102.101V98.9002H99.6008ZM92.8008 93.3002C92.8008 95.3002 94.1008 96.9002 96.2008 96.9002C98.2008 96.9002 99.6008 95.3002 99.6008 93.3002C99.6008 91.2002 98.2008 89.7002 96.2008 89.7002C94.1008 89.6002 92.8008 91.3002 92.8008 93.3002Z" fill="white"/>
<path d="M108.4 81.7998H105.9V98.8998H108.4V81.7998Z" fill="white"/>
<path d="M115.301 83.5998C115.301 84.5998 114.501 85.2998 113.501 85.2998C112.501 85.2998 111.801 84.5998 111.801 83.5998C111.801 82.5998 112.501 81.7998 113.501 81.7998C114.601 81.8998 115.301 82.5998 115.301 83.5998ZM112.301 87.5998H114.801V98.9998H112.301V87.5998Z" fill="white"/>
<path d="M125.5 98.8998V82.2998H137.4V84.7998H128.1V89.2998H137.1V91.7998H128.1V96.3998H137.6V98.8998H125.5Z" fill="white"/>
<path d="M145.598 89.3998C144.198 89.3998 143.398 89.8998 143.398 90.7998C143.398 91.5998 144.198 91.7998 145.298 91.9998L146.498 92.1998C148.998 92.5998 150.498 93.5998 150.498 95.5998C150.498 97.7998 148.598 99.2998 145.298 99.2998C144.098 99.2998 142.098 99.0998 140.398 97.7998L141.598 95.8998C142.398 96.4998 143.498 97.0998 145.398 97.0998C147.098 97.0998 147.998 96.5998 147.998 95.6998C147.998 94.9998 147.398 94.5998 145.998 94.3998L144.798 94.1998C142.298 93.8998 140.898 92.6998 140.898 90.8998C140.898 88.6998 142.698 87.2998 145.598 87.2998C147.398 87.2998 148.998 87.6998 150.198 88.4998L149.098 90.3998C148.398 89.9998 146.998 89.3998 145.598 89.3998Z" fill="white"/>
<path d="M156.8 89.7996V94.7996C156.8 96.2996 157.6 96.8996 158.6 96.8996C159.4 96.8996 160.2 96.5996 160.9 96.0996L161.9 98.0996C161 98.6996 159.8 99.1996 158.4 99.1996C155.8 99.1996 154.3 97.7996 154.3 94.7996V89.7996H152V87.4996H154.3V84.0996H156.8V87.4996H161.2V89.7996H156.8Z" fill="white"/>
<path d="M172.601 98.9002V97.5002C171.801 98.5002 170.701 99.2002 169.001 99.2002C165.801 99.2002 163.301 96.7002 163.301 93.2002C163.301 89.7002 165.801 87.2002 169.001 87.2002C170.601 87.2002 171.801 87.9002 172.601 88.9002V87.5002H175.101V98.9002H172.601ZM165.901 93.3002C165.901 95.3002 167.201 96.9002 169.301 96.9002C171.301 96.9002 172.701 95.3002 172.701 93.3002C172.701 91.2002 171.301 89.7002 169.301 89.7002C167.201 89.6002 165.901 91.3002 165.901 93.3002Z" fill="white"/>
<path d="M182.402 89.7996V94.7996C182.402 96.2996 183.202 96.8996 184.202 96.8996C185.002 96.8996 185.802 96.5996 186.502 96.0996L187.502 98.0996C186.602 98.6996 185.402 99.1996 184.002 99.1996C181.402 99.1996 179.902 97.7996 179.902 94.7996V89.7996H177.602V87.4996H179.902V84.0996H182.402V87.4996H186.802V89.7996H182.402Z" fill="white"/>
<path d="M200 93.2002C200 93.5002 200 93.8002 200 94.1002H191.6C191.9 96.1002 193.4 97.0002 195 97.0002C196.1 97.0002 197.3 96.6002 198.3 95.8002L199.5 97.6002C198.1 98.8002 196.5 99.2002 194.8 99.2002C191.4 99.2002 189 96.8002 189 93.2002C189 89.6002 191.3 87.2002 194.7 87.2002C197.8 87.3002 200 89.7002 200 93.2002ZM191.6 92.3002H197.5C197.2 90.5002 196.2 89.5002 194.6 89.5002C192.8 89.5002 191.8 90.6002 191.6 92.3002Z" fill="white"/>
<path d="M32.7016 109.3H35.7016C37.3016 109.3 38.2016 110.1 38.2016 111.5C38.2016 112.6 37.5016 113.3 36.6016 113.5L38.4016 116.1H37.0016L35.3016 113.7H33.8016V116.1H32.6016V109.3H32.7016ZM35.7016 112.6C36.5016 112.6 37.1016 112.2 37.1016 111.5C37.1016 110.8 36.6016 110.4 35.7016 110.4H34.0016V112.7H35.7016V112.6Z" fill="white"/>
<path d="M41.6016 109.199H42.7016L45.7016 115.999H44.4016L43.7016 114.399H40.5016L39.8016 115.999H38.6016L41.6016 109.199ZM43.3016 113.299L42.1016 110.599L40.9016 113.299H43.3016Z" fill="white"/>
<path d="M24.7008 109.199H25.8008L28.8008 115.999H27.5008L26.8008 114.399H23.6008L23.0008 115.999H21.8008L24.7008 109.199ZM26.4008 113.299L25.2008 110.599L24.0008 113.299H26.4008Z" fill="white"/>
<path d="M46.3008 109.3H48.8008C50.9008 109.3 52.4008 110.8 52.4008 112.7C52.4008 114.6 50.9008 116.1 48.8008 116.1H46.3008V109.3ZM48.8008 114.9C50.2008 114.9 51.1008 113.9 51.1008 112.6C51.1008 111.3 50.2008 110.3 48.8008 110.3H47.5008V114.9H48.8008Z" fill="white"/>
<path d="M54.6004 109.3H53.4004V116.1H54.6004V109.3Z" fill="white"/>
<path d="M55.5 114.999L56.2 114.199C56.8 114.799 57.5 115.099 58.3 115.099C59 115.099 59.5 114.799 59.5 114.199C59.5 113.699 59.2 113.499 58 113.199C56.6 112.899 55.8 112.399 55.8 111.199C55.8 109.999 56.8 109.199 58.1 109.199C59.1 109.199 59.9 109.499 60.6 109.999L60 110.899C59.4 110.399 58.8 110.199 58.2 110.199C57.5 110.199 57.1 110.599 57.1 110.999C57.1 111.499 57.4 111.799 58.7 112.099C60.1 112.399 60.9 112.999 60.9 114.099C60.9 115.399 59.9 116.099 58.5 116.099C57.3 116.099 56.3 115.799 55.5 114.999Z" fill="white"/>
<path d="M61.1016 114.999L61.8016 114.199C62.4016 114.799 63.1016 115.099 63.9016 115.099C64.6016 115.099 65.1016 114.799 65.1016 114.199C65.1016 113.699 64.8016 113.499 63.6016 113.199C62.2016 112.899 61.3016 112.399 61.3016 111.199C61.3016 109.999 62.3016 109.199 63.6016 109.199C64.6016 109.199 65.4016 109.499 66.1016 109.999L65.5016 110.899C64.9016 110.399 64.3016 110.199 63.7016 110.199C63.0016 110.199 62.6016 110.599 62.6016 110.999C62.6016 111.499 62.9016 111.799 64.2016 112.099C65.6016 112.399 66.4016 112.999 66.4016 114.099C66.4016 115.399 65.4016 116.099 64.0016 116.099C62.8016 116.099 61.9016 115.799 61.1016 114.999Z" fill="white"/>
<path d="M66.9004 112.6C66.9004 110.7 68.4004 109.1 70.4004 109.1C72.5004 109.1 73.9004 110.7 73.9004 112.6C73.9004 114.5 72.4004 116.1 70.4004 116.1C68.3004 116.1 66.9004 114.6 66.9004 112.6ZM72.7004 112.6C72.7004 111.3 71.7004 110.2 70.4004 110.2C69.1004 110.2 68.1004 111.3 68.1004 112.6C68.1004 113.9 69.1004 115 70.4004 115C71.8004 115 72.7004 114 72.7004 112.6Z" fill="white"/>
<path d="M74.9004 109.3H76.0004L79.6004 113.9V109.3H80.8004V116H79.8004L76.1004 111.2V116H74.9004V109.3Z" fill="white"/>
<path d="M84.1016 112.6C84.1016 110.7 85.5016 109.1 87.6016 109.1C88.8016 109.1 89.6016 109.5 90.2016 110.2L89.4016 111.1C88.9016 110.6 88.3016 110.3 87.5016 110.3C86.2016 110.3 85.3016 111.4 85.3016 112.7C85.3016 114 86.2016 115.1 87.5016 115.1C88.3016 115.1 88.9016 114.8 89.4016 114.2L90.2016 115C89.5016 115.7 88.7016 116.2 87.5016 116.2C85.6016 116.1 84.1016 114.6 84.1016 112.6Z" fill="white"/>
<path d="M90.5 112.6C90.5 110.7 92 109.1 94 109.1C96.1 109.1 97.5 110.7 97.5 112.6C97.5 114.5 96 116.1 94 116.1C92 116.1 90.5 114.6 90.5 112.6ZM96.4 112.6C96.4 111.3 95.4 110.2 94.1 110.2C92.8 110.2 91.8 111.3 91.8 112.6C91.8 113.9 92.8 115 94.1 115C95.4 115 96.4 114 96.4 112.6Z" fill="white"/>
<path d="M98.5 109.3H99.7V114.9H103.3V116H98.5V109.3Z" fill="white"/>
<path d="M104 109.3H105.2V114.9H108.8V116H104V109.3Z" fill="white"/>
<path d="M109.5 109.3H114.5V110.3H110.7V112.1H114.1V113.1H110.7V115H114.5V116H109.5V109.3Z" fill="white"/>
<path d="M115.102 112.6C115.102 110.7 116.502 109.1 118.602 109.1C119.802 109.1 120.602 109.5 121.202 110.2L120.402 111.1C119.902 110.6 119.302 110.3 118.502 110.3C117.202 110.3 116.302 111.4 116.302 112.7C116.302 114 117.202 115.1 118.502 115.1C119.302 115.1 119.902 114.8 120.402 114.2L121.202 115C120.502 115.7 119.702 116.2 118.502 116.2C116.602 116.1 115.102 114.6 115.102 112.6Z" fill="white"/>
<path d="M123.702 110.4H121.602V109.3H127.102V110.4H124.902V116H123.702V110.4Z" fill="white"/>
<path d="M129.1 109.3H127.9V116.1H129.1V109.3Z" fill="white"/>
<path d="M130.102 112.6C130.102 110.7 131.602 109.1 133.602 109.1C135.702 109.1 137.102 110.7 137.102 112.6C137.102 114.5 135.602 116.1 133.602 116.1C131.502 116.1 130.102 114.6 130.102 112.6ZM135.902 112.6C135.902 111.3 134.902 110.2 133.602 110.2C132.302 110.2 131.302 111.3 131.302 112.6C131.302 113.9 132.302 115 133.602 115C135.002 115 135.902 114 135.902 112.6Z" fill="white"/>
<path d="M138.102 109.3H139.202L142.802 113.9V109.3H144.002V116H143.002L139.302 111.2V116H138.102V109.3Z" fill="white"/>
<path d="M147.602 109.3H148.802V112.1H152.002V109.3H153.202V116H152.002V113.2H148.802V116H147.602V109.3Z" fill="white"/>
<path d="M154.102 112.6C154.102 110.7 155.602 109.1 157.602 109.1C159.702 109.1 161.102 110.7 161.102 112.6C161.102 114.5 159.602 116.1 157.602 116.1C155.602 116.1 154.102 114.6 154.102 112.6ZM160.002 112.6C160.002 111.3 159.002 110.2 157.702 110.2C156.402 110.2 155.402 111.3 155.402 112.6C155.402 113.9 156.402 115 157.702 115C159.002 115 160.002 114 160.002 112.6Z" fill="white"/>
<path d="M163.401 110.4H161.301V109.3H166.801V110.4H164.601V116H163.401V110.4Z" fill="white"/>
<path d="M167.5 109.3H172.5V110.3H168.7V112.1H172.1V113.1H168.7V115H172.6V116H167.5V109.3Z" fill="white"/>
<path d="M173.5 109.3H174.7V114.9H178.2V116H173.5V109.3Z" fill="white"/>
</g>
<defs>
<clipPath id="clip0_1576_6744">
<rect width="200" height="116.1" fill="white"/>
</clipPath>
</defs>
</svg>
